<?xml version="1.0" standalone="no"?>
<!DOCTYPE svg PUBLIC "-//W3C//DTD SVG 20010904//EN"
 "http://www.w3.org/TR/2001/REC-SVG-20010904/DTD/svg10.dtd">
<svg version="1.0" xmlns="http://www.w3.org/2000/svg"
 width="553.000000pt" height="553.000000pt" viewBox="0 0 553.000000 553.000000"
 preserveAspectRatio="xMidYMid meet">
<metadata>
Created by potrace 1.14, written by Peter Selinger 2001-2017
</metadata>
<g transform="translate(0.000000,553.000000) scale(0.100000,-0.100000)"
fill="#000000" stroke="none">
<path d="M0 3940 c0 -808 4 -1470 8 -1470 8 0 32 -43 32 -56 0 -3 -9 -2 -21 1
-20 7 -20 4 -17 -67 3 -57 13 -91 42 -158 59 -134 251 -677 270 -767 l8 -33
-36 15 c-20 9 -69 16 -109 18 -43 1 -72 6 -72 13 0 6 -8 18 -17 28 -10 10 -18
20 -18 24 0 4 -13 21 -30 38 -16 18 -27 34 -24 37 3 3 1 8 -5 12 -8 4 -11 -31
-11 -114 l0 -120 52 26 c40 20 65 26 112 25 122 -3 226 -46 226 -95 0 -18 -2
-18 -37 3 -33 20 -52 23 -143 23 -87 1 -113 -3 -153 -21 -26 -12 -45 -18 -42
-13 3 5 1 12 -5 16 -7 4 -10 -142 -10 -444 l0 -451 25 0 c34 0 82 -25 95 -49
11 -22 4 -76 -16 -108 -14 -23 -77 -49 -94 -38 -6 4 -10 -13 -10 -45 l0 -50
515 0 c423 1 515 3 515 14 0 14 -71 109 -104 138 -42 38 -49 10 -11 -42 14
-19 25 -38 25 -44 0 -5 7 -18 17 -28 9 -10 14 -20 11 -23 -7 -7 -118 124 -118
139 0 26 42 66 78 75 53 15 370 61 414 61 20 0 44 -7 53 -16 14 -15 13 -19
-20 -55 -27 -30 -89 -136 -123 -211 -2 -5 108 -8 245 -8 l249 0 18 40 c23 52
49 52 126 0 l59 -40 726 0 725 0 83 54 c45 29 195 125 332 212 388 245 603
389 810 543 105 78 213 153 240 166 91 45 180 58 370 52 193 -6 268 -21 273
-54 3 -23 -33 -103 -52 -115 -8 -6 -8 -8 1 -8 8 0 7 -15 -4 -52 -8 -29 -19
-70 -25 -90 -6 -21 -14 -36 -18 -33 -5 3 -6 -3 -3 -13 2 -11 -2 -35 -11 -55
-13 -32 -20 -37 -48 -38 -18 -1 -44 -5 -58 -9 -17 -6 -6 -7 33 -4 52 4 68 -2
50 -20 -4 -3 -8 -14 -9 -22 -5 -30 -14 -44 -29 -44 -15 0 -21 -25 -7 -33 4 -2
1 -2 -5 -1 -12 3 -17 -11 -16 -43 1 -7 -3 -11 -7 -8 -4 2 -13 -15 -20 -38 -7
-23 -20 -53 -29 -67 -9 -14 -36 -64 -60 -112 -24 -49 -47 -88 -52 -88 -5 0 -9
-7 -9 -15 0 -8 -5 -15 -11 -15 -5 0 -7 -4 -4 -10 3 -5 2 -10 -3 -10 -6 0 -12
-7 -16 -15 -5 -13 23 -15 214 -15 l220 0 0 1026 0 1026 -36 74 -36 75 7 129
c4 73 12 127 17 124 5 -3 8 -70 7 -149 -1 -126 2 -147 20 -181 l20 -39 -1 120
c0 66 -4 125 -8 130 -4 6 -10 32 -14 58 -3 27 -13 58 -21 70 -20 28 -20 28 15
72 l30 38 0 373 c0 304 -2 374 -13 374 -43 0 -93 124 -129 320 -16 87 -21 158
-22 290 -1 211 1 218 96 275 l67 40 0 359 c1 323 -1 362 -16 378 -16 18 -16
18 0 12 12 -4 17 -1 17 14 0 21 -81 65 -230 123 -41 17 -136 59 -211 95 l-135
65 -110 -3 -109 -3 95 -42 c52 -23 181 -81 285 -128 105 -47 228 -102 273
-122 93 -40 94 -41 111 -151 18 -119 19 -115 -36 -91 -83 36 -234 98 -368 150
-139 55 -446 182 -743 310 l-183 79 -92 0 -92 -1 125 -55 c69 -30 202 -87 295
-125 94 -39 193 -81 221 -94 163 -77 431 -183 487 -192 15 -3 27 -10 27 -15 0
-6 7 -7 16 -4 8 3 13 2 10 -3 -4 -5 58 -34 136 -65 141 -56 241 -104 188 -90
-14 3 -55 19 -92 35 -36 16 -69 29 -72 29 -3 0 -58 23 -123 51 -65 28 -176 72
-248 99 -141 52 -178 68 -300 125 -44 20 -151 66 -238 101 -180 73 -198 80
-399 173 l-67 31 -753 -2 -753 -3 -51 -78 c-57 -86 -91 -125 -54 -62 12 22 32
56 42 75 11 19 27 43 36 53 14 16 11 17 -60 17 -58 0 -77 -3 -82 -15 -3 -9 0
-15 10 -15 8 0 12 -4 9 -10 -3 -5 -1 -10 6 -10 7 0 9 -3 6 -7 -4 -3 3 -18 15
-32 19 -21 20 -23 3 -11 -11 8 -40 34 -65 57 l-45 43 -712 0 c-494 0 -714 -3
-718 -11 -4 -6 -14 -8 -22 -5 -8 3 -12 2 -9 -3 3 -5 -5 -16 -19 -25 -32 -21
-45 -20 -20 2 25 22 29 39 9 39 -8 0 -13 -5 -11 -11 2 -6 -2 -17 -10 -24 -7
-8 -11 -17 -8 -22 5 -8 -45 -50 -58 -50 -3 0 -33 -18 -66 -40 -94 -63 -95 -64
-89 -248 3 -86 2 -134 -2 -106 -4 27 -9 106 -11 175 l-4 124 -90 44 c-160 78
-285 128 -308 122 -5 -1 -6 8 -2 19 6 18 2 20 -29 20 l-36 0 0 -1470z m2596
1378 c33 -35 91 -99 129 -143 39 -44 74 -83 79 -87 5 -3 20 7 33 23 21 24 32
29 71 29 72 0 296 -28 402 -51 101 -21 349 -95 364 -109 4 -4 -4 -28 -18 -52
-14 -25 -26 -52 -26 -61 0 -19 77 -60 86 -46 3 5 2 8 -3 7 -19 -7 -11 20 18
60 36 49 47 53 45 13 0 -23 -4 -27 -13 -19 -8 7 -13 7 -13 0 0 -17 27 -34 35
-22 4 7 16 10 26 7 11 -3 19 -1 19 4 0 5 -5 9 -11 9 -5 0 -8 4 -4 9 8 15 36 6
108 -33 104 -56 107 -58 102 -84 -3 -19 0 -23 13 -18 13 5 12 2 -3 -10 -20
-15 -19 -15 5 -10 94 20 143 26 282 37 239 19 407 -4 516 -71 39 -24 34 -41
-11 -35 -172 24 -401 14 -697 -31 -221 -34 -253 -44 -115 -38 61 2 135 1 165
-4 l55 -7 -112 -30 c-61 -16 -109 -33 -106 -39 3 -5 2 -7 -3 -4 -5 3 -40 -1
-79 -10 -38 -9 -86 -15 -105 -15 -298 11 -375 5 -568 -43 -179 -44 -279 -95
-412 -208 -32 -27 -64 -46 -79 -47 -22 0 -23 -1 -7 -8 18 -7 16 -11 -16 -47
-20 -21 -58 -78 -85 -126 l-50 -87 -41 51 c-23 28 -39 54 -37 59 3 4 31 13 63
19 53 11 100 29 77 30 -5 0 -44 -9 -85 -19 l-75 -19 -62 49 c-34 27 -92 62
-130 77 -41 17 -67 34 -65 41 2 8 -3 11 -10 9 -7 -3 -47 1 -88 8 -41 7 -127
16 -190 19 -105 6 -145 2 -460 -44 -190 -27 -368 -55 -397 -61 -96 -21 -157
-81 -158 -154 0 -56 -19 -79 -58 -70 -19 4 -27 3 -23 -4 3 -6 -2 -13 -11 -16
-10 -3 0 -3 22 0 22 3 47 7 56 10 20 6 29 -22 29 -94 0 -39 -3 -52 -12 -47 -7
4 -6 0 3 -7 17 -14 33 -110 45 -262 4 -60 2 -81 -8 -87 -10 -7 -10 -9 3 -9 13
0 19 -26 33 -142 9 -79 20 -179 23 -224 l6 -81 -174 -6 c-127 -4 -195 -11
-251 -26 -94 -25 -256 -105 -323 -160 -60 -49 -71 -51 -49 -8 24 46 43 69 99
117 l50 43 12 139 c6 76 19 175 28 219 24 121 95 330 120 355 16 16 39 24 86
28 130 12 154 14 176 15 29 1 21 23 -26 74 -73 78 -410 282 -490 297 -97 18
-150 -1 -201 -72 -40 -55 -38 -32 2 28 22 32 49 56 83 73 44 23 62 26 155 26
91 -1 114 -4 170 -28 l65 -27 19 25 c10 14 35 34 55 44 34 17 212 70 291 86
46 9 130 44 153 63 26 23 20 32 -15 21 -18 -5 -123 -11 -233 -14 -288 -6 -402
-28 -607 -119 -55 -24 -47 -5 23 53 137 115 321 166 757 212 61 6 112 15 112
19 0 5 -20 20 -45 34 -25 15 -45 31 -45 36 0 18 130 125 245 201 l120 80 25
-28 c14 -15 34 -41 46 -57 20 -28 21 -28 52 -12 l31 16 -39 57 c-22 31 -40 60
-40 64 0 19 291 133 466 183 256 72 263 73 312 42 l40 -25 77 141 c89 163 122
218 133 218 4 0 35 -28 68 -62z m-2520 -97 c9 -46 14 -85 11 -87 -4 -4 -37
148 -37 170 0 28 13 -12 26 -83z m654 6 c0 -7 -14 -21 -31 -31 -33 -20 -34
-39 -1 -44 46 -7 18 -102 -39 -133 -33 -17 -43 1 -16 30 36 39 40 58 12 65
-60 15 -15 125 53 126 12 0 22 -6 22 -13z m-431 -33 c21 -27 37 -119 26 -153
-8 -28 -65 -29 -89 -2 -30 33 -48 110 -35 148 9 29 15 33 44 33 24 0 39 -7 54
-26z m936 -24 c3 -5 -1 -10 -10 -10 -9 0 -13 5 -10 10 3 6 8 10 10 10 2 0 7
-4 10 -10z m-7 -58 c9 -6 6 -12 -13 -20 -22 -10 -25 -9 -25 8 0 21 16 26 38
12z m2577 -202 c3 -5 1 -10 -4 -10 -6 0 -11 5 -11 10 0 6 2 10 4 10 3 0 8 -4
11 -10z m1162 -313 c3 -4 -14 -7 -38 -7 -132 -1 -269 -144 -269 -281 0 -38 -4
-59 -13 -62 -14 -5 -17 6 -18 53 l-1 24 -19 -24 c-10 -14 -19 -30 -19 -36 0
-12 -75 -84 -87 -84 -11 0 -53 -76 -53 -96 0 -10 -2 -15 -5 -12 -10 10 -16
110 -7 122 5 6 8 21 7 34 -1 13 4 22 12 22 8 0 11 5 8 11 -11 17 73 174 118
220 75 75 166 121 262 131 35 4 112 -6 122 -15z m-452 -76 c28 -5 39 -12 36
-22 -2 -8 -4 -19 -4 -26 0 -7 -4 -10 -8 -8 -11 7 -41 -44 -33 -57 4 -6 3 -8
-3 -5 -13 8 -47 -68 -38 -84 5 -7 4 -10 -3 -5 -29 17 -53 -188 -33 -279 8 -34
3 -34 126 -1 50 14 109 25 131 25 37 1 45 -4 70 -36 82 -110 80 -107 60 -96
-13 7 -28 8 -45 2 -13 -6 -30 -8 -37 -5 -8 3 -16 1 -19 -3 -2 -5 -21 -12 -40
-15 -22 -4 -35 -13 -35 -22 0 -15 53 -119 87 -170 15 -23 7 -58 -11 -47 -11 7
13 -27 27 -38 5 -3 9 -12 10 -20 4 -25 17 -38 33 -32 12 5 12 7 -3 19 -10 7
-15 14 -10 14 4 0 -2 9 -13 20 -20 20 -26 40 -12 40 6 0 48 -65 61 -93 2 -5
20 -25 40 -44 20 -19 30 -32 24 -28 -7 3 -13 3 -13 0 0 -3 66 -38 147 -77 82
-38 151 -74 154 -79 3 -5 16 -11 29 -14 12 -2 25 -7 28 -10 6 -5 -11 -4 -151
15 -43 6 -104 8 -135 5 -79 -9 -331 -54 -364 -65 -26 -8 -28 -6 -37 28 -6 20
-19 93 -31 162 -38 230 -42 250 -64 283 -31 45 -70 62 -144 60 -55 -1 -62 1
-57 16 15 37 57 192 75 273 29 129 13 185 -68 237 -48 30 -175 81 -302 119
-58 18 -61 20 -30 21 20 1 85 10 145 21 61 10 124 21 140 23 54 7 279 6 320
-2z m-628 -245 c112 -31 243 -85 243 -100 0 -6 -15 -58 -34 -116 -18 -58 -37
-121 -41 -140 -4 -19 -13 -45 -21 -57 -19 -31 -70 -30 -160 1 -189 66 -383 57
-504 -23 -58 -38 -115 -113 -142 -187 -50 -138 -6 -550 76 -712 108 -212 330
-279 565 -170 36 17 67 32 69 33 6 5 -56 339 -64 342 -5 2 -99 -10 -209 -25
-110 -16 -205 -27 -211 -25 -6 2 -21 73 -33 157 -20 139 -21 157 -8 183 37 71
31 69 443 128 208 30 386 55 395 55 22 0 25 -11 39 -111 6 -45 40 -249 76
-453 35 -204 64 -379 64 -388 0 -12 -13 -21 -41 -28 -31 -9 -61 -32 -127 -99
-122 -124 -262 -199 -445 -238 -120 -26 -355 -23 -459 5 -166 45 -315 144
-409 270 -61 83 -169 301 -202 407 -62 200 -80 530 -38 690 78 296 299 518
596 599 102 28 175 35 335 31 128 -3 171 -8 247 -29z m-1782 -231 c164 -42
310 -152 371 -278 57 -119 67 -252 27 -372 -25 -78 -75 -146 -149 -204 -15
-12 -25 -23 -23 -25 2 -2 36 -19 74 -39 164 -86 262 -241 272 -432 9 -154 -38
-282 -146 -397 -94 -100 -218 -164 -400 -207 -82 -19 -686 -111 -731 -111 -14
0 -18 13 -23 58 -3 31 -30 260 -61 507 -30 248 -78 650 -105 895 -28 245 -54
461 -57 481 -4 29 -2 38 12 43 17 7 408 67 549 85 120 15 324 13 390 -4z
m-1657 -295 c36 -22 38 -26 17 -34 -8 -3 -14 -1 -12 5 1 6 -15 12 -37 14 -21
3 -41 7 -45 11 -3 4 9 4 27 1 17 -4 32 -4 32 -2 0 2 -15 9 -32 14 -29 8 -30 9
-8 10 14 1 40 -8 58 -19z m4232 -560 c11 -7 7 -10 -17 -10 -18 0 -33 -4 -33
-10 0 -5 -13 -10 -30 -10 -16 0 -30 -4 -30 -9 0 -5 16 -5 38 1 82 22 182 32
195 19 16 -15 23 -267 8 -284 -14 -18 -22 -67 -9 -67 6 0 7 -7 3 -17 -4 -10
-7 -30 -6 -45 1 -16 -2 -28 -7 -28 -5 0 -7 -13 -4 -30 3 -19 0 -30 -8 -30 -7
0 -10 -7 -6 -16 4 -9 1 -23 -5 -30 -6 -8 -8 -14 -4 -14 4 0 2 -6 -4 -14 -7 -8
-13 -22 -16 -32 -2 -11 -11 -36 -20 -57 -9 -22 -11 -36 -6 -32 13 8 4 -19 -21
-60 -10 -16 -18 -38 -18 -48 0 -11 -4 -15 -12 -11 -7 5 -9 2 -5 -9 5 -15 -26
-91 -35 -82 -2 2 -4 -5 -5 -16 -2 -20 -59 -128 -87 -164 -15 -18 -15 -18 -10
-1 6 16 4 17 -13 8 -11 -6 -23 -9 -26 -6 -3 3 -4 -6 -3 -20 2 -15 1 -24 -2
-21 -9 8 -33 -56 -25 -68 4 -6 1 -7 -7 -2 -8 5 -11 3 -8 -6 6 -16 -43 -92 -72
-112 -11 -8 -17 -17 -13 -20 3 -4 2 -7 -4 -7 -6 0 -27 -22 -46 -49 -54 -74
-202 -199 -276 -233 -35 -15 -61 -31 -58 -34 3 -3 15 0 27 6 47 25 27 0 -37
-48 -119 -87 -212 -143 -240 -143 -16 0 -54 5 -87 11 -47 10 -60 10 -67 -1
-13 -21 -1 -29 49 -30 26 0 40 -3 32 -6 -8 -3 -31 -16 -50 -28 -19 -13 -61
-28 -92 -35 -32 -6 -58 -14 -58 -17 0 -5 67 4 105 14 l20 5 -20 -14 c-21 -15
-200 -92 -295 -127 -152 -56 -304 -73 -470 -52 l-55 7 45 12 c25 7 54 17 65
21 29 13 -56 7 -132 -9 -50 -11 -79 -11 -152 -2 -149 20 -170 37 -98 78 21 11
34 24 30 29 -5 4 -3 5 4 1 7 -4 45 4 85 18 89 30 201 57 373 90 230 45 426 85
599 121 94 19 174 35 180 35 5 0 7 2 4 5 -7 7 -207 -20 -326 -45 -55 -11 -103
-20 -107 -20 -3 0 -3 -4 0 -10 4 -6 -7 -8 -27 -4 -26 4 -30 3 -18 -6 12 -9 9
-10 -15 -8 -47 4 -166 -13 -160 -23 4 -5 -8 -6 -26 -2 -20 4 -30 2 -26 -4 4
-5 -6 -8 -25 -5 -23 4 -29 1 -23 -8 5 -9 2 -10 -14 -5 -11 3 -60 -3 -108 -15
-189 -46 -241 -59 -323 -85 -47 -14 -93 -26 -102 -26 -9 0 -22 -7 -28 -15 -7
-7 -17 -11 -22 -8 -6 4 -13 1 -17 -5 -14 -22 -122 -14 -225 18 -54 17 -100 31
-102 31 -2 0 -4 4 -4 9 0 5 30 24 68 43 49 26 85 37 135 41 78 7 141 33 177
71 20 23 25 38 25 83 0 49 -3 58 -32 83 -18 16 -58 36 -90 45 -87 24 -105 33
-101 52 5 29 48 44 105 38 61 -7 67 -1 57 60 l-6 45 -49 0 c-86 0 -151 -19
-185 -56 -35 -36 -43 -62 -36 -117 7 -60 45 -92 135 -112 69 -15 77 -19 77
-41 0 -35 -33 -48 -112 -41 l-68 6 0 -62 0 -63 -62 -27 c-77 -33 -82 -33 -153
-2 -32 14 -59 25 -60 23 -1 -2 -7 -16 -13 -33 l-11 -30 1 36 c1 20 -4 44 -11
53 -16 19 -16 18 24 40 17 10 21 14 10 11 -56 -19 -92 -17 -141 8 -27 14 -60
34 -74 45 l-25 20 35 16 35 16 -50 -6 c-46 -5 -53 -3 -78 24 -24 25 -26 33
-18 55 12 32 57 61 128 84 29 9 49 21 46 26 -4 6 0 8 10 4 15 -6 191 32 183
40 -6 6 -178 -24 -242 -42 -74 -21 -155 -65 -147 -78 3 -6 1 -7 -5 -3 -6 4
-20 1 -31 -6 -16 -10 -25 -8 -58 15 -21 15 -56 43 -77 62 -34 30 -36 35 -18
35 11 0 24 5 27 11 5 7 -4 9 -26 5 -30 -4 -38 1 -107 72 -72 74 -199 243 -223
296 -7 14 -15 23 -19 21 -9 -5 -55 76 -52 92 3 16 -38 93 -50 93 -5 0 -7 4 -4
9 3 5 -2 23 -11 41 -15 32 -15 35 6 76 17 31 37 50 74 69 29 15 41 24 27 20
-14 -3 -32 -8 -40 -10 -8 -2 -16 -4 -17 -4 -2 -1 -4 0 -6 2 -2 1 -15 -6 -29
-15 -20 -13 -28 -14 -31 -5 -3 8 -9 6 -19 -6 -13 -17 -16 -11 -42 65 -37 112
-57 229 -42 245 20 22 309 113 321 101 5 -5 33 -269 32 -301 -1 -19 -5 -26
-15 -22 -7 2 -10 1 -7 -4 3 -5 0 -11 -7 -14 -7 -2 -1 -2 13 0 l27 4 12 -115
c7 -64 10 -127 8 -141 -3 -13 -2 -26 3 -27 8 -3 25 -120 35 -248 10 -139 46
-196 131 -207 21 -3 167 12 325 31 158 20 300 34 315 31 22 -5 25 -4 13 4 -12
9 -9 11 15 10 37 -2 304 63 376 91 132 51 252 126 339 211 40 39 68 79 99 144
24 50 44 91 45 92 1 2 33 -27 70 -63 44 -44 65 -71 61 -82 -4 -11 -2 -12 7 -4
10 7 30 0 75 -28 53 -32 106 -55 245 -108 15 -6 14 -9 -7 -19 -14 -6 -23 -7
-19 -2 8 13 -9 11 -110 -11 -50 -11 -101 -21 -115 -21 -25 -1 -24 -2 4 -9 18
-5 23 -8 11 -9 -11 0 -17 -3 -14 -6 3 -3 36 0 73 6 48 9 62 15 49 20 -16 6
-14 8 8 8 14 1 35 4 45 7 15 5 16 4 3 -6 -12 -9 -8 -10 20 -4 19 3 40 9 45 12
6 4 111 7 235 8 226 1 292 9 450 49 135 34 379 176 453 264 17 20 37 31 68 36
81 12 110 27 130 67 22 44 23 92 4 208 -7 47 -21 130 -29 185 -30 189 -48 290
-52 297 -7 12 118 9 136 -2z m777 -262 c-3 -8 -6 -5 -6 6 -1 11 2 17 5 13 3
-3 4 -12 1 -19z m-4780 -338 c8 -47 34 -144 58 -216 25 -72 45 -136 45 -142 0
-5 -17 -13 -38 -17 -50 -8 -100 -39 -114 -70 -11 -24 -13 -20 -50 67 -22 51
-50 131 -64 178 -28 95 -56 261 -46 272 7 7 101 15 162 14 l34 -1 13 -85z
m4294 -211 c-5 -13 -10 -19 -10 -12 -1 15 10 45 15 40 3 -2 0 -15 -5 -28z
m-55 -147 c-29 -69 -83 -173 -115 -221 -7 -11 -16 -9 -50 10 -28 16 -37 25
-29 31 7 4 18 8 23 8 6 0 3 -5 -5 -10 -13 -8 -13 -10 2 -10 9 0 18 -3 21 -7 2
-5 2 -2 1 5 -5 18 26 28 38 11 7 -10 8 -8 3 8 -5 18 28 103 41 103 4 0 -11
-42 -27 -73 -19 -36 7 -5 30 36 12 21 21 44 21 53 0 9 5 12 12 8 8 -5 9 -2 5
10 -4 11 -3 15 4 10 8 -4 9 4 5 27 -4 22 -3 27 2 15 8 -19 9 -18 15 4 3 13 1
31 -6 39 -10 14 -10 14 5 3 14 -11 17 -10 23 8 4 12 9 20 11 17 3 -2 -11 -41
-30 -85z m-4071 -105 c0 -1 12 -27 27 -57 139 -277 469 -609 796 -799 40 -23
76 -49 79 -56 6 -17 -12 -73 -33 -100 -14 -19 -17 -18 -128 37 -235 117 -414
254 -600 458 -117 128 -299 370 -299 398 0 6 -6 12 -14 12 -24 0 -8 67 25 104
15 16 26 17 82 12 35 -4 64 -8 65 -9z m3855 -42 c8 -11 10 -17 6 -13 -5 4 -15
3 -23 -3 -8 -8 -13 -8 -13 -1 0 12 12 45 14 40 1 -2 8 -12 16 -23z m10 -114
c0 -10 3 -12 8 -5 8 13 52 1 52 -14 0 -30 -179 -253 -354 -441 -44 -47 -239
-213 -296 -251 -19 -13 -56 -41 -81 -62 -25 -21 -91 -63 -145 -93 -128 -71
-392 -187 -406 -179 -10 6 -59 106 -55 111 2 1 19 9 38 17 29 12 36 12 36 2 0
-8 -9 -12 -21 -10 -12 3 -16 2 -9 -2 8 -4 9 -13 3 -29 -9 -24 -8 -24 44 -20
30 2 89 18 133 35 43 18 112 45 153 61 41 17 79 34 86 40 6 5 15 5 19 1 5 -4
5 -2 1 5 -5 9 -14 10 -34 2 -15 -6 -61 -12 -102 -14 -41 -1 -69 -1 -62 2 6 3
10 9 6 14 -7 12 39 7 48 -6 5 -6 8 -6 8 1 0 25 -29 37 -60 24 -16 -7 -28 -17
-27 -22 1 -6 -5 -13 -13 -15 -13 -4 -13 -3 0 6 13 10 13 11 0 11 -18 0 43 41
67 44 10 2 24 -5 31 -15 7 -11 19 -19 25 -19 8 1 7 5 -3 13 -8 7 -15 19 -15
27 0 20 157 118 163 102 2 -7 8 -12 13 -12 4 0 6 6 4 13 -4 9 17 11 91 9 60
-2 101 1 107 7 8 8 -5 11 -43 12 -82 2 -85 3 -82 19 2 13 0 12 -10 -1 -7 -9
-21 -16 -32 -16 -16 0 -15 3 5 18 13 10 34 19 47 19 12 0 22 5 22 11 0 5 -5 7
-12 3 -7 -4 -8 -3 -4 5 4 6 12 9 17 6 5 -4 9 -2 9 4 0 5 34 37 75 71 41 34 73
55 70 48 -3 -7 -20 -23 -38 -35 -61 -43 -109 -93 -103 -109 3 -8 2 -12 -4 -9
-6 3 -10 1 -10 -4 0 -6 9 -11 19 -11 15 0 19 5 16 21 -4 18 -2 19 11 8 10 -8
18 -9 22 -3 4 6 15 13 25 17 11 4 15 12 11 19 -5 8 -2 9 10 5 10 -4 15 -3 11
3 -3 6 0 10 7 10 8 0 6 5 -5 11 -24 14 -53 -7 -37 -26 8 -10 5 -13 -14 -11
l-25 1 26 28 c16 16 33 25 44 22 23 -7 50 5 42 19 -4 7 -2 7 7 -1 10 -9 10
-16 2 -26 -9 -10 -8 -18 4 -33 8 -10 12 -13 9 -6 -4 8 1 20 11 28 18 14 18 14
0 8 -16 -6 -17 -4 -7 14 7 12 16 22 22 22 6 0 7 5 4 10 -8 13 8 13 21 0 7 -7
18 -1 35 17 21 25 22 26 2 9 -13 -11 -23 -17 -23 -13 0 3 -3 12 -6 21 -3 9 -1
16 6 16 6 0 8 -6 4 -12 -4 -7 7 2 25 21 28 31 37 33 32 7 -1 -5 5 -4 13 4 9 7
16 18 16 24 0 6 -5 4 -11 -4 -9 -13 -10 -13 -6 0 2 8 12 14 21 12 15 -3 16 0
6 17 -9 17 -8 20 7 14 13 -5 15 -2 10 13 -5 15 -3 15 9 -3 9 -13 21 -23 26
-23 6 0 4 8 -3 17 -10 11 -10 14 -1 9 6 -4 12 -5 12 -2 0 2 3 13 6 23 4 12 3
14 -3 5 -7 -9 -13 -6 -22 12 -16 29 -53 29 -77 0 -15 -19 -15 -18 -5 1 5 11
18 28 29 38 17 15 21 16 31 3 7 -8 19 -12 27 -9 8 3 14 0 14 -7 0 -6 5 -8 12
-4 7 4 8 3 4 -4 -4 -7 -2 -12 3 -12 6 0 11 7 11 15 0 8 5 15 11 15 5 0 7 -4 4
-10 -3 -5 1 -10 10 -10 9 0 14 4 11 9 -3 4 5 13 18 19 14 6 27 20 31 32 3 11
10 18 15 15 4 -3 6 5 2 17 -3 14 -2 19 6 14 7 -4 12 -2 12 3 0 6 -4 11 -8 11
-4 0 -8 9 -9 19 -1 15 3 18 15 14 14 -5 15 -3 5 8 -7 7 -13 20 -12 29 0 11 2
12 6 1 5 -11 7 -11 14 0 7 11 9 9 10 -6 1 -11 1 -23 0 -27 -1 -11 17 -10 23 1
4 5 0 11 -6 14 -10 3 -8 10 5 23 18 19 18 19 11 -1 -7 -20 -7 -20 14 -2 22 20
26 57 6 57 -24 0 -44 -12 -37 -24 4 -6 0 -6 -9 2 -11 9 -18 9 -21 2 -3 -6 -4
-5 -2 2 1 7 8 12 15 10 8 -2 10 3 6 14 -6 15 -4 15 11 3 15 -12 16 -12 10 4
-3 9 -2 17 3 17 6 0 10 5 10 10 0 6 -6 10 -14 10 -8 0 -17 4 -20 8 -3 5 8 6
25 4 18 -3 29 -10 29 -21z m-84 -28 c-3 -4 -6 0 -6 8 0 9 -8 5 -21 -11 l-21
-25 18 32 c15 27 20 30 27 17 5 -8 6 -18 3 -21z m80 -41 c1 -7 0 -8 -3 -2 -2
5 -9 8 -14 4 -5 -3 -9 0 -9 6 0 15 23 7 26 -8z m-180 -77 c-9 -9 -16 -13 -16
-8 0 12 22 34 28 28 2 -2 -3 -11 -12 -20z m78 -20 c3 -8 1 -17 -5 -20 -5 -4
-6 -11 -3 -17 4 -7 2 -8 -5 -4 -7 4 -10 13 -8 19 2 7 -3 17 -10 22 -12 9 -11
11 6 12 10 1 22 -5 25 -12z m-127 -33 c0 -10 -6 -19 -13 -19 -9 0 -9 5 -1 19
7 10 13 18 14 18 1 0 1 -8 0 -18z m93 14 c0 -2 -7 -7 -16 -10 -8 -3 -12 -2 -9
4 6 10 25 14 25 6z m-49 -39 c-10 -9 -11 -8 -5 6 3 10 9 15 12 12 3 -3 0 -11
-7 -18z m62 0 c-2 -4 -3 -11 -3 -16 0 -11 -53 -22 -60 -13 -3 4 -3 6 -1 5 2
-2 10 6 18 16 12 17 52 24 46 8z m772 -17 c-5 -8 -11 -8 -17 -2 -6 6 -7 16 -3
22 5 8 11 8 17 2 6 -6 7 -16 3 -22z m-995 -94 c0 -2 -8 -10 -17 -17 -16 -13
-17 -12 -4 4 13 16 21 21 21 13z m-2794 -51 c-9 -9 -16 -13 -16 -8 0 12 22 34
28 28 2 -2 -3 -11 -12 -20z m2742 5 c-7 -11 -17 -20 -22 -20 -5 0 -1 9 9 20
10 11 20 20 22 20 2 0 -2 -9 -9 -20z m832 -234 c0 -2 -7 -9 -15 -16 -12 -10
-15 -10 -15 4 0 9 7 16 15 16 8 0 15 -2 15 -4z m-4929 -100 c19 -8 43 -24 53
-35 13 -14 31 -21 58 -21 l39 0 -16 -29 c-19 -37 -35 -47 -46 -30 -6 10 -9 11
-9 2 0 -19 -18 -16 -23 5 -3 9 -5 4 -6 -13 -1 -22 -9 -34 -31 -47 -36 -21 -37
-19 -69 90 -29 95 -21 108 50 78z m369 -29 c19 -7 44 -26 56 -44 25 -37 153
-379 154 -411 0 -2 -26 -2 -57 0 -49 4 -57 7 -55 22 2 11 -1 15 -8 11 -6 -3
-4 11 5 33 13 31 14 44 4 68 -6 17 -13 24 -16 16 -3 -7 0 -19 7 -27 9 -10 8
-20 -4 -42 -8 -15 -15 -23 -15 -18 -1 6 3 16 8 24 5 8 4 26 -5 46 -10 25 -10
35 -1 45 9 10 9 11 0 6 -8 -4 -13 -1 -13 8 0 8 -5 27 -12 43 -6 15 -10 32 -9
36 1 5 -3 6 -8 3 -5 -4 -13 4 -16 16 -9 28 -35 59 -45 53 -4 -2 -17 5 -28 15
-26 25 -60 38 -89 35 -25 -2 -28 7 -12 36 20 38 91 49 159 26z m1246 -43 c-10
-14 -20 -23 -23 -20 -3 3 2 12 11 21 9 9 16 21 16 27 0 6 3 8 6 5 4 -4 -1 -18
-10 -33z m619 -22 c-3 -3 -11 0 -18 7 -9 10 -8 11 6 5 10 -3 15 -9 12 -12z
m-484 -35 c121 -56 195 -81 343 -118 180 -43 342 -68 522 -81 l162 -12 18 -30
c17 -29 17 -29 26 -7 4 13 6 26 4 30 -2 3 53 21 122 39 70 18 151 42 180 53
66 23 64 23 80 -1 11 -18 10 -20 -9 -17 -12 1 -24 -5 -27 -13 -5 -13 -3 -13
11 -1 11 9 17 10 17 2 0 -6 5 -10 11 -8 7 1 15 -11 20 -26 9 -32 12 -30 -136
-81 l-90 -31 -37 -74 c-20 -42 -50 -130 -68 -201 -17 -69 -36 -132 -41 -140
-8 -12 -9 -10 -5 6 17 58 59 264 61 299 2 22 5 51 7 65 2 18 -2 25 -13 24 -12
-1 -15 6 -11 25 4 25 4 25 -12 6 -8 -11 -16 -31 -17 -45 l-2 -25 -4 25 c-4 21
-8 15 -23 -33 -17 -54 -32 -201 -32 -309 0 -54 -7 -53 -28 2 -49 128 -123 258
-179 317 -13 14 -38 24 -68 28 -128 15 -177 25 -184 37 -6 9 -11 10 -19 2 -7
-7 -27 -8 -58 -2 -26 5 -63 10 -82 12 -43 4 -287 68 -372 98 -97 33 -259 104
-275 121 -14 13 -13 17 3 31 16 13 106 75 110 76 1 0 44 -20 95 -43z m-1829
16 c8 -10 23 -38 32 -63 23 -60 61 -108 91 -116 20 -5 23 -11 21 -38 -2 -18
-7 -39 -11 -46 -6 -9 -4 -11 6 -5 8 5 7 0 -4 -12 -20 -23 -14 -33 19 -33 27 0
46 -47 24 -60 -7 -4 -9 -16 -6 -28 4 -12 2 -32 -5 -44 -11 -21 -11 -22 5 -9
23 19 29 10 34 -57 3 -43 10 -63 30 -84 70 -75 229 -65 303 20 30 34 31 38 26
98 -4 36 -2 66 3 69 5 3 31 8 58 12 l49 5 7 -50 c7 -57 2 -90 -25 -143 -38
-76 -151 -146 -218 -135 -27 4 -32 3 -21 -5 11 -7 -6 -9 -59 -4 -53 5 -79 12
-95 26 -13 12 -29 18 -42 15 -24 -6 -67 21 -58 36 4 6 2 8 -4 4 -25 -15 -77
85 -111 214 -11 41 -23 82 -26 92 -5 12 1 18 24 23 38 8 31 25 -11 25 l-30 0
3 63 c2 59 -1 78 -22 122 -6 11 -11 40 -11 65 -1 25 -7 48 -12 52 -7 5 -5 8 5
8 9 0 23 -8 31 -17z m3523 -13 c-3 -5 -11 -10 -16 -10 -6 0 -7 5 -4 10 3 6 11
10 16 10 6 0 7 -4 4 -10z m-105 -54 c0 -2 -7 -7 -16 -10 -8 -3 -12 -2 -9 4 6
10 25 14 25 6z m-2933 -78 c1 -11 1 -19 -1 -17 -1 2 -10 17 -20 32 -16 27 -16
27 1 16 11 -6 20 -20 20 -31z m2506 -218 c-3 -11 -9 -17 -15 -14 -5 3 -4 12 3
20 16 19 18 18 12 -6z m-2081 -45 c0 -5 -5 -11 -11 -13 -6 -2 -11 4 -11 13 0
9 5 15 11 13 6 -2 11 -8 11 -13z m638 -261 c0 -8 -7 -14 -15 -14 -15 0 -21 21
-9 33 10 9 24 -2 24 -19z m3601 -77 c-10 -9 -11 -8 -5 6 3 10 9 15 12 12 3 -3
0 -11 -7 -18z m-3199 -62 c0 -5 -5 -11 -11 -13 -6 -2 -11 4 -11 13 0 9 5 15
11 13 6 -2 11 -8 11 -13z"/>
<path d="M3070 5070 l-25 -20 35 0 c45 0 77 -22 85 -60 5 -22 -3 -51 -33 -117
-21 -48 -68 -155 -102 -237 -35 -81 -70 -150 -77 -153 -8 -3 -44 4 -81 15
-178 54 -356 29 -511 -74 -62 -41 -57 -43 -124 54 -23 33 -88 124 -145 202
-69 94 -105 152 -109 176 -5 33 -2 39 41 80 51 47 46 53 -29 33 -52 -14 -65
-32 -65 -90 0 -113 31 -175 228 -458 37 -53 42 -65 31 -79 -11 -14 -11 -15 1
-4 12 10 21 5 51 -30 l37 -43 35 17 c20 10 55 31 77 47 23 16 76 44 118 63 72
31 84 33 187 33 101 -1 116 -3 187 -33 42 -18 83 -32 91 -32 30 0 58 37 96
125 l39 90 48 12 49 12 -42 -2 c-24 -1 -43 1 -43 6 0 24 64 156 78 162 9 4 69
9 133 12 128 6 172 -3 209 -42 l23 -24 -26 -12 c-15 -7 -24 -16 -20 -22 3 -6
1 -7 -6 -3 -6 4 -17 4 -24 -1 -7 -5 -25 -10 -42 -12 -16 -2 -31 -7 -33 -12 -2
-5 -16 -9 -30 -9 -15 0 -34 -5 -42 -10 -13 -9 -13 -10 0 -10 23 0 206 48 246
65 34 14 37 14 77 -13 68 -46 75 -47 27 -4 -25 22 -87 62 -139 88 l-95 49
-109 -3 c-60 -1 -118 -7 -129 -13 -20 -11 -20 -9 -12 37 5 27 9 84 8 127 0 61
-5 83 -21 105 -26 35 -86 41 -123 12z"/>
<path d="M3731 4851 c-9 -6 -10 -10 -2 -16 9 -5 9 -11 -1 -23 -10 -14 -10 -15
2 -5 10 9 24 54 16 53 -1 0 -7 -4 -15 -9z"/>
<path d="M3795 4770 c-3 -6 1 -7 9 -4 18 7 21 14 7 14 -6 0 -13 -4 -16 -10z"/>
<path d="M1807 4660 c-129 -34 -228 -81 -282 -135 -52 -51 -85 -102 -85 -128
0 -19 -43 -34 -135 -46 -68 -10 -140 -30 -133 -37 2 -2 28 3 58 11 30 7 102
19 160 25 114 12 320 49 440 79 108 27 70 25 -76 -4 -69 -14 -138 -25 -154
-25 -16 0 -32 -4 -35 -10 -7 -12 -85 -14 -85 -2 0 23 23 80 46 114 38 54 77
75 243 129 147 48 165 62 38 29z"/>
<path d="M2560 4625 c-108 -27 -240 -97 -240 -127 0 -23 -1 -24 72 16 138 75
300 99 434 63 39 -10 72 -13 90 -8 l29 7 -28 19 c-65 43 -244 58 -357 30z"/>
<path d="M3288 4613 c6 -2 18 -2 25 0 6 3 1 5 -13 5 -14 0 -19 -2 -12 -5z"/>
<path d="M3218 4603 c6 -2 18 -2 25 0 6 3 1 5 -13 5 -14 0 -19 -2 -12 -5z"/>
<path d="M2900 4556 c0 -9 30 -14 35 -6 4 6 -3 10 -14 10 -12 0 -21 -2 -21 -4z"/>
<path d="M2068 4493 c7 -3 16 -2 19 1 4 3 -2 6 -13 5 -11 0 -14 -3 -6 -6z"/>
<path d="M2798 4343 c7 -3 16 -2 19 1 4 3 -2 6 -13 5 -11 0 -14 -3 -6 -6z"/>
<path d="M1910 4274 c-34 -14 -34 -14 -5 -10 17 3 46 9 65 14 l35 10 -30 0
c-16 0 -46 -6 -65 -14z"/>
<path d="M2588 4283 c7 -3 16 -2 19 1 4 3 -2 6 -13 5 -11 0 -14 -3 -6 -6z"/>
<path d="M2388 4263 c7 -3 16 -2 19 1 4 3 -2 6 -13 5 -11 0 -14 -3 -6 -6z"/>
<path d="M2365 4250 c3 -6 -3 -10 -13 -10 -19 0 -95 -29 -79 -30 12 0 117 31
117 35 0 1 -7 6 -16 9 -8 3 -12 2 -9 -4z"/>
<path d="M2438 4253 c7 -3 16 -2 19 1 4 3 -2 6 -13 5 -11 0 -14 -3 -6 -6z"/>
<path d="M2545 4175 c-5 -2 -36 -9 -68 -15 -32 -7 -56 -14 -53 -17 7 -7 146
19 152 29 5 8 -12 10 -31 3z"/>
<path d="M800 3881 c0 -5 9 -7 20 -4 11 3 20 7 20 9 0 2 -9 4 -20 4 -11 0 -20
-4 -20 -9z"/>
<path d="M895 3740 c-27 -7 -28 -8 -5 -8 14 0 34 3 45 8 25 11 2 11 -40 0z"/>
<path d="M802 3538 c-19 -31 -75 -163 -92 -218 -8 -23 -8 -22 -10 10 l-2 35
-9 -40 c-6 -22 -8 -48 -5 -58 2 -9 0 -15 -5 -11 -5 3 -9 -7 -9 -23 0 -15 -3
-39 -5 -53 -4 -20 -3 -19 6 5 11 27 13 28 20 10 7 -19 8 -19 8 2 1 12 6 25 13
29 7 5 8 3 3 -6 -5 -9 -4 -11 4 -6 7 5 9 16 5 28 -4 15 -3 18 6 13 8 -5 11 -4
7 2 -4 6 6 39 22 74 15 35 36 98 45 139 10 41 19 81 22 88 6 21 -4 13 -24 -20z"/>
<path d="M965 3420 c-8 -13 5 -13 25 0 13 8 13 10 -2 10 -9 0 -20 -4 -23 -10z"/>
<path d="M252 5132 c7 -75 29 -94 27 -24 -1 32 -8 57 -17 65 -13 10 -14 5 -10
-41z"/>
<path d="M4723 3998 c-1 -30 -1 -31 6 -8 7 22 9 23 16 7 4 -9 2 -23 -4 -31
-11 -14 -5 -26 13 -26 6 0 4 4 -4 10 -12 8 -12 10 3 16 16 6 16 8 0 35 -22 37
-28 37 -30 -3z"/>
<path d="M4699 3727 c6 -8 7 -18 3 -22 -4 -5 -1 -5 6 -1 10 6 10 11 1 22 -6 8
-14 14 -16 14 -3 0 0 -6 6 -13z"/>
<path d="M4698 3683 c7 -3 16 -2 19 1 4 3 -2 6 -13 5 -11 0 -14 -3 -6 -6z"/>
<path d="M4825 3530 c10 -11 20 -20 22 -20 2 0 -2 9 -9 20 -7 11 -17 20 -22
20 -5 0 -1 -9 9 -20z"/>
<path d="M4769 3411 c11 -7 11 -9 0 -14 -8 -2 -2 -8 14 -12 16 -4 38 -3 50 2
14 6 31 7 46 1 13 -5 29 -7 35 -5 18 6 -85 37 -123 37 -24 0 -32 -3 -22 -9z
m51 -11 c-8 -5 -19 -10 -25 -10 -5 0 -3 5 5 10 8 5 20 10 25 10 6 0 3 -5 -5
-10z"/>
<path d="M4729 3392 c9 -7 10 -11 2 -15 -7 -4 -8 -5 0 -3 15 2 13 20 -3 24
-10 3 -10 2 1 -6z"/>
<path d="M1746 3659 c-38 -5 -71 -11 -73 -12 -3 -4 31 -301 42 -363 l5 -31 98
14 c124 17 185 37 229 76 102 90 78 233 -51 299 -46 24 -150 31 -250 17z"/>
<path d="M1848 2917 c-68 -9 -78 -13 -78 -30 0 -44 53 -403 61 -411 10 -12
149 9 225 35 157 51 217 189 138 316 -55 89 -159 116 -346 90z"/>
<path d="M1026 2531 c-3 -5 2 -15 12 -22 15 -12 16 -12 5 2 -7 9 -10 19 -6 22
3 4 4 7 0 7 -3 0 -8 -4 -11 -9z"/>
<path d="M2825 2108 c-16 -12 -46 -36 -65 -53 -50 -46 -65 -52 -186 -76 -60
-11 -124 -27 -142 -35 -40 -16 -45 -17 -38 -5 4 5 -4 7 -16 3 l-22 -5 21 -10
c16 -7 34 -5 62 7 23 9 55 13 73 11 27 -4 29 -4 13 5 -15 8 -9 9 25 4 30 -3
40 -2 31 4 -9 7 0 9 30 9 57 -1 229 24 229 33 0 4 12 5 26 2 15 -3 24 -1 21 4
-3 5 18 10 46 11 29 1 63 6 77 11 28 11 -50 9 -165 -3 -84 -9 -90 4 -30 61 53
49 55 54 10 22z m-182 -135 c-7 -2 -19 -2 -25 0 -7 3 -2 5 12 5 14 0 19 -2 13
-5z"/>
<path d="M4445 2119 c-30 -7 -30 -7 -3 -8 14 0 33 -4 42 -7 9 -3 16 -2 16 4 0
15 -21 19 -55 11z"/>
<path d="M4348 2103 c7 -3 16 -2 19 1 4 3 -2 6 -13 5 -11 0 -14 -3 -6 -6z"/>
<path d="M4160 2077 c-30 -6 -48 -12 -40 -14 8 -2 47 3 85 11 39 8 57 14 40
14 -16 0 -55 -5 -85 -11z"/>
<path d="M4001 2049 c-18 -6 -30 -13 -27 -16 3 -4 23 -1 43 5 21 7 49 13 63
15 17 3 14 4 -10 5 -19 0 -50 -4 -69 -9z"/>
<path d="M3888 2022 c-10 -2 -18 -8 -18 -13 0 -6 5 -7 11 -4 5 4 25 9 42 12
18 3 34 7 36 9 5 5 -42 2 -71 -4z"/>
<path d="M3760 1990 c20 -13 33 -13 25 0 -3 6 -14 10 -23 10 -15 0 -15 -2 -2
-10z"/>
<path d="M3407 1966 c-37 -7 -69 -15 -72 -18 -3 -3 1 -34 9 -69 8 -35 22 -107
31 -159 8 -52 20 -119 26 -148 l11 -53 36 7 c82 13 78 5 56 115 -5 24 -2 27
33 34 105 19 163 74 163 154 0 51 -19 90 -60 125 -28 23 -40 26 -98 25 -37 -1
-97 -7 -135 -13z m163 -95 c14 -27 13 -66 -2 -79 -7 -5 -30 -14 -50 -20 -41
-11 -40 -12 -53 62 -8 46 2 56 57 56 27 0 40 -5 48 -19z"/>
<path d="M3658 1963 c6 -2 18 -2 25 0 6 3 1 5 -13 5 -14 0 -19 -2 -12 -5z"/>
<path d="M3038 1904 c-85 -26 -133 -108 -126 -215 12 -163 134 -258 280 -215
97 28 142 91 141 198 0 114 -59 206 -152 237 -44 14 -85 13 -143 -5z m135
-114 c70 -82 54 -200 -28 -216 -68 -12 -115 47 -115 144 0 40 5 54 26 76 38
37 84 35 117 -4z"/>
<path d="M2752 1853 c-29 -4 -33 -7 -28 -26 13 -48 29 -147 25 -152 -8 -7
-158 -29 -164 -24 -2 3 -10 40 -16 83 l-12 78 -50 -5 c-27 -4 -52 -9 -56 -12
-5 -6 54 -380 65 -410 5 -11 17 -13 52 -8 26 3 49 8 51 10 3 2 0 36 -6 76 -5
39 -9 73 -8 74 1 2 154 33 161 33 1 0 7 -28 14 -62 20 -105 15 -98 73 -91 29
3 53 7 55 8 2 2 -8 61 -22 131 -14 71 -30 168 -37 217 -13 97 -6 91 -97 80z"/>
<path d="M1863 1826 c-9 -5 -30 -9 -47 -8 -27 0 -28 -1 -11 -9 14 -7 36 -4 75
10 37 13 46 19 27 18 -15 -1 -35 -6 -44 -11z"/>
<path d="M1938 1703 c7 -3 16 -2 19 1 4 3 -2 6 -13 5 -11 0 -14 -3 -6 -6z"/>
<path d="M3838 1493 c7 -3 16 -2 19 1 4 3 -2 6 -13 5 -11 0 -14 -3 -6 -6z"/>
<path d="M3750 1476 c0 -2 9 -6 20 -9 11 -3 18 -1 14 4 -5 9 -34 13 -34 5z"/>
<path d="M3383 1303 c9 -2 23 -2 30 0 6 3 -1 5 -18 5 -16 0 -22 -2 -12 -5z"/>
<path d="M3393 1213 c9 -2 23 -2 30 0 6 3 -1 5 -18 5 -16 0 -22 -2 -12 -5z"/>
<path d="M3318 1203 c12 -2 30 -2 40 0 9 3 -1 5 -23 4 -22 0 -30 -2 -17 -4z"/>
<path d="M746 2011 c-4 -5 3 -7 14 -4 23 6 26 13 6 13 -8 0 -17 -4 -20 -9z"/>
<path d="M1488 1243 c6 -2 18 -2 25 0 6 3 1 5 -13 5 -14 0 -19 -2 -12 -5z"/>
<path d="M4460 1681 c0 -5 5 -13 10 -16 6 -3 10 -2 10 4 0 5 -4 13 -10 16 -5
3 -10 2 -10 -4z"/>
<path d="M4510 1655 c-7 -9 -10 -18 -7 -21 3 -3 10 4 17 15 13 25 8 27 -10 6z"/>
<path d="M4443 1598 c2 -7 -5 -24 -17 -38 l-21 -25 27 24 c22 19 29 51 11 51
-3 0 -3 -6 0 -12z"/>
<path d="M4355 1490 c-10 -11 -14 -20 -9 -20 5 0 15 9 22 20 7 11 11 20 9 20
-2 0 -12 -9 -22 -20z"/>
<path d="M3892 1255 c-17 -20 5 -20 24 0 12 11 12 15 2 15 -7 -1 -19 -7 -26
-15z"/>
<path d="M3814 1205 c-9 -21 -2 -26 13 -10 8 9 9 16 3 20 -6 3 -13 -1 -16 -10z"/>
<path d="M3850 1216 c0 -2 7 -7 16 -10 8 -3 12 -2 9 4 -6 10 -25 14 -25 6z"/>
<path d="M686 835 c-3 -8 -1 -15 4 -15 6 0 10 7 10 15 0 8 -2 15 -4 15 -2 0
-6 -7 -10 -15z"/>
<path d="M3164 935 c-10 -8 -14 -15 -8 -15 6 0 17 7 24 15 16 19 9 19 -16 0z"/>
<path d="M2595 895 c-52 -32 -40 -32 16 0 24 14 40 25 34 25 -5 0 -28 -11 -50
-25z"/>
<path d="M3088 913 c6 -2 18 -2 25 0 6 3 1 5 -13 5 -14 0 -19 -2 -12 -5z"/>
<path d="M3155 900 c27 -12 43 -12 25 0 -8 5 -22 9 -30 9 -10 0 -8 -3 5 -9z"/>
<path d="M3098 893 c7 -3 16 -2 19 1 4 3 -2 6 -13 5 -11 0 -14 -3 -6 -6z"/>
<path d="M3155 779 c-4 -6 -5 -12 -2 -15 2 -3 7 2 10 11 7 17 1 20 -8 4z"/>
<path d="M3135 739 c-4 -6 -5 -12 -2 -15 2 -3 7 2 10 11 7 17 1 20 -8 4z"/>
<path d="M232 920 c0 -14 2 -19 5 -12 2 6 2 18 0 25 -3 6 -5 1 -5 -13z"/>
<path d="M588 5379 c-29 -31 -28 -35 3 -19 21 12 26 1 7 -18 -8 -8 -8 -12 -1
-12 6 0 18 10 27 23 10 14 14 16 10 4 -5 -13 -2 -16 12 -12 11 3 6 -1 -11 -9
-16 -8 -41 -26 -55 -41 l-25 -28 34 19 c18 11 41 24 50 29 45 28 44 27 27 37
-24 13 -19 30 7 24 12 -3 16 -3 10 0 -7 3 -13 13 -13 22 0 13 -3 12 -14 -4
-14 -18 -15 -18 -21 -1 -9 22 -14 21 -47 -14z m42 7 c0 -3 -4 -8 -10 -11 -5
-3 -10 -1 -10 4 0 6 5 11 10 11 6 0 10 -2 10 -4z"/>
<path d="M5075 5375 c76 -36 145 -66 330 -142 l120 -50 3 100 c1 56 0 107 -2
114 -4 10 -59 13 -263 12 l-258 0 70 -34z"/>
<path d="M490 5337 c0 -7 5 -18 12 -25 9 -9 6 -14 -13 -21 -24 -10 -24 -10 -1
-10 12 -1 22 2 22 7 0 4 14 13 30 20 17 8 28 18 24 23 -3 5 -10 7 -15 4 -5 -4
-9 -1 -9 4 0 6 -5 11 -11 11 -6 0 -9 -7 -6 -15 4 -8 2 -17 -3 -20 -6 -4 -10 3
-10 14 0 12 -4 21 -10 21 -5 0 -10 -6 -10 -13z"/>
<path d="M427 5279 c7 -7 15 -10 18 -7 3 3 -2 9 -12 12 -14 6 -15 5 -6 -5z"/>
<path d="M5426 4028 c-11 -41 -6 -86 10 -102 21 -21 34 -12 34 25 0 16 4 29 9
29 11 0 21 -25 21 -51 0 -10 7 -19 15 -19 35 0 7 94 -37 124 -31 22 -45 20
-52 -6z"/>
<path d="M5470 3646 c0 -8 7 -21 15 -29 8 -8 12 -16 10 -18 -2 -3 5 -15 15
-29 l20 -25 0 58 c0 57 0 57 -30 57 -19 0 -30 -5 -30 -14z"/>
<path d="M0 1886 c0 -2 8 -10 18 -17 15 -13 16 -12 3 4 -13 16 -21 21 -21 13z"/>
<path d="M0 1765 c0 -7 25 -27 55 -43 63 -34 76 -29 15 6 -22 12 -40 26 -40
31 0 5 -7 11 -15 15 -9 3 -15 0 -15 -9z"/>
<path d="M0 1632 c0 -26 9 -33 90 -76 50 -26 105 -59 123 -74 l32 -26 -23 26
c-13 14 -39 34 -58 44 -18 10 -34 22 -34 26 0 5 -6 8 -13 8 -7 0 -37 23 -65
50 -52 50 -52 50 -52 22z"/>
<path d="M5238 623 c6 -2 18 -2 25 0 6 3 1 5 -13 5 -14 0 -19 -2 -12 -5z"/>
<path d="M5178 613 c7 -3 16 -2 19 1 4 3 -2 6 -13 5 -11 0 -14 -3 -6 -6z"/>
<path d="M5050 600 c-50 -11 1 -11 60 -1 41 8 42 8 10 8 -19 0 -51 -3 -70 -7z"/>
<path d="M1051 238 c-1 -35 -3 -72 -4 -83 -1 -13 4 -20 16 -19 9 0 42 1 73 2
51 2 55 4 52 25 -2 14 -9 20 -18 18 -8 -2 -32 -6 -53 -9 -33 -4 -36 -2 -31 14
12 32 25 44 50 44 12 0 26 5 30 11 5 9 -6 10 -40 5 -38 -6 -46 -5 -46 8 0 16
26 21 83 17 19 -2 27 2 27 13 0 13 -13 16 -68 16 l-68 0 -3 -62z"/>
<path d="M4258 207 l-148 -82 131 -3 131 -3 77 48 c79 49 131 94 131 112 0 7
-31 11 -87 11 l-88 -1 -147 -82z"/>
<path d="M72 254 c-14 -16 -5 -18 17 -5 7 5 9 11 5 14 -5 3 -15 -1 -22 -9z"/>
</g>
</svg>
